<?xml version="1.0" encoding="utf-8"?>
<!-- Generator: Adobe Illustrator 18.1.1, SVG Export Plug-In . SVG Version: 6.00 Build 0)  -->
<svg version="1.1" xmlns="http://www.w3.org/2000/svg" xmlns:xlink="http://www.w3.org/1999/xlink" x="0px" y="0px"
	 viewBox="97.6 155.5 94.4 103.1" enable-background="new 97.6 155.5 94.4 103.1" xml:space="preserve">
<g id="Layer_2_1_">
	<g>
		<radialGradient id="SVGID_1_" cx="148.3002" cy="209.1671" r="39.7124" gradientUnits="userSpaceOnUse">
			<stop  offset="0" style="stop-color:#FFFFFF"/>
			<stop  offset="0.2821" style="stop-color:#F7F7F7"/>
			<stop  offset="0.7137" style="stop-color:#E2E2E2"/>
			<stop  offset="0.9847" style="stop-color:#D1D1D1"/>
		</radialGradient>
		<path fill="url(#SVGID_1_)" d="M147.3,165.9c0.8,0,1.5,0,2.3,0c1.4,0.1,2.7,0.2,4.1,0.4c8.2,1.3,15.3,5,20.9,11.1
			c7.5,8.2,10.5,17.9,9.1,28.8c-1,8.2-4.7,15.2-10.6,21c-8.1,8.1-16.1,16.1-24.2,24.2c-0.3,0.3-0.5,0.5-1,0.9
			c-1.6-1.7-3.1-3.3-4.7-4.9c-5.2-5.2-10.3-10.3-15.5-15.5c-2.2-2.2-4.6-4.3-6.6-6.7c-7.4-8.7-10-18.7-8.1-29.9
			c2.4-14.1,14.2-26.1,28.3-28.7C143.3,166.3,145.3,166.1,147.3,165.9z M148.3,223.2c12.1,0,21.7-9.6,21.7-21.6
			c0-12-9.7-21.6-21.8-21.7c-11.3,0-21.6,9-21.6,21.6C126.6,214.1,136.8,223.3,148.3,223.2z"/>
		<path fill="#206BA4" d="M148.3,223.2c-11.5,0.1-21.7-9.1-21.6-21.7c0.1-12.6,10.3-21.6,21.6-21.6c12.1,0,21.8,9.7,21.8,21.7
			C170,213.6,160.3,223.2,148.3,223.2z"/>
	</g>
</g>
<g id="Layer_1">
	<g id="Layer_1_1_" display="none">
		<g display="inline">
			<path d="M302.7,600.4c-1.7,0-5.1,0-6.8,0c-3.4,0-5.1,0-8.5-1.7c-25.5-3.4-47.6-13.6-64.6-34c-17-17-25.5-39.1-27.2-62.9
				c-1.7-20.4,3.4-40.8,13.6-59.5c13.6-25.5,28.9-52.7,42.5-78.2c17-30.6,32.3-59.5,44.2-93.5c1.7-5.1,3.4-11.9,5.1-18.7
				c0,1.7,0,1.7,0,1.7c10.2,35.7,25.5,69.7,44.2,102c15.3,27.2,32.3,56.1,45.9,83.3c11.9,23.8,17,49.3,11.9,74.8
				c-6.8,37.4-40.8,71.4-78.2,79.9C316.3,598.7,309.5,598.7,302.7,600.4z"/>
		</g>
		<g display="inline">
			<path fill="#FFFFFF" d="M219.4,546C217.7,546,217.7,546,219.4,546C217.7,546,217.7,546,219.4,546c-6.8,0-10.2-1.7-13.6-6.8
				c-3.4-3.4-5.1-8.5-5.1-11.9s0-8.5,1.7-11.9c3.4-5.1,5.1-10.2,8.5-15.3c3.4-6.8,6.8-11.9,8.5-18.7c0-1.7,0-1.7,1.7-3.4l0,0
				c1.7,6.8-1.7,13.6,1.7,20.4c3.4,5.1,6.8,11.9,8.5,17c1.7,5.1,3.4,10.2,1.7,15.3C233,537.4,226.2,544.3,219.4,546
				C217.7,546,219.4,544.3,219.4,546z"/>
		</g>
	</g>
	<g id="Layer_2">
		<g>
			<path fill="#FFFFFF" d="M167.3,195c0,0.3,0,0.6,0,1c-12.6,0-25.3,0-37.9,0c0-0.3,0-0.6,0-1C142,195,154.7,195,167.3,195z"/>
			<path fill="#FFFFFF" d="M167.3,197.1c0,3.7,0,7.3,0,11c-0.9,0-1.9,0-2.8,0c-0.1,0-0.1-0.1-0.3-0.3c-0.4-1.8-1.2-3.3-2.4-4.6
				c-2.2-2.5-6.1-2.7-8.6-0.4c-1.6,1.5-2.5,3.4-3,5.5c-1.3,0-2.7,0-4,0c-0.4-1.6-1-3.1-2.1-4.4c-1.3-1.8-3.3-2.8-5.5-2.5
				c-2.2,0.1-3.7,1.3-4.9,3.1c-0.7,1-1.2,2.2-1.5,3.6c0,0.1-0.1,0.3-0.3,0.3c-0.9,0-1.8,0-2.7,0c0-3.7,0-7.3,0-11
				C142,197.1,154.7,197.1,167.3,197.1z"/>
		</g>
	</g>
	<g id="Layer_3" display="none">
		<g display="inline">
			<path d="M107.2,563c0-107.2,0-216,0-323.2c8.5,0,17,1.7,25.5,1.7c6.8,0,13.6,1.7,18.7,3.4c3.4,0,5.1,0,6.8,1.7
				c3.4,1.7,6.8,5.1,11.9,6.8c3.4,1.7,5.1,5.1,5.1,8.5c0,10.2,1.7,20.4,1.7,28.9c0,11.9,0,23.8,1.7,35.7
				c1.7,15.3,6.8,27.2,15.3,39.1c5.1,5.1,6.8,10.2,5.1,17c-1.7,11.9,5.1,18.7,13.6,27.2c15.3,13.6,32.3,23.8,52.7,27.2
				c1.7,0,3.4,1.7,5.1,1.7c8.5,5.1,17,10.2,25.5,17c1.7,1.7,5.1,3.4,6.8,6.8c6.8,11.9,15.3,22.1,22.1,35.7c1.7,3.4,6.8,6.8,8.5,11.9
				c3.4,5.1,6.8,11.9,10.2,17c1.7,1.7,1.7,3.4,3.4,5.1c8.5,8.5,17,15.3,25.5,23.8c1.7,1.7,3.4,3.4,5.1,6.8
				C285.7,563,197.3,563,107.2,563z"/>
			<path d="M333.4,447.3c0-10.2,3.4-18.7,6.8-25.5c3.4-10.2,8.5-20.4,17-27.2c1.7,0,1.7-1.7,3.4-1.7c5.1-1.7,10.2-1.7,15.3-1.7
				c10.2-1.7,17,1.7,23.8,8.5c6.8,8.5,10.2,18.7,13.6,28.9c1.7,3.4,1.7,8.5,3.4,11.9c1.7,3.4,1.7,6.8,0,10.2
				c-3.4,8.5-8.5,17-11.9,23.8c-1.7,1.7-3.4,3.4-6.8,5.1c-8.5,3.4-18.7,5.1-27.2,6.8c-1.7,0-3.4,0-3.4,0
				c-6.8-6.8-13.6-13.6-20.4-18.7c-3.4-3.4-6.8-6.8-10.2-8.5C333.4,452.4,333.4,449,333.4,447.3z"/>
			<path d="M263.6,352.1c1.7-8.5,1.7-18.7,3.4-27.2c1.7-5.1,3.4-6.8,8.5-8.5c6.8-1.7,13.6,3.4,18.7,5.1c3.4,1.7,5.1,3.4,8.5,1.7
				c5.1-1.7,10.2,3.4,11.9,8.5c3.4,6.8,1.7,11.9,0,18.7c-1.7,6.8-3.4,11.9-8.5,17c-1.7,1.7-3.4,5.1-5.1,8.5
				c-3.4,5.1-8.5,10.2-17,8.5c-1.7,0-3.4,0-5.1-1.7c-3.4-3.4-8.5-8.5-11.9-11.9c-3.4-3.4-3.4-8.5-5.1-13.6
				C265.3,355.5,265.3,353.8,263.6,352.1C265.3,352.1,263.6,352.1,263.6,352.1z"/>
			<path d="M207.5,324.8c0-8.5,0-17,0-23.8c0-3.4,5.1-6.8,8.5-8.5c6.8-3.4,13.6-3.4,20.4,1.7c5.1,3.4,5.1,8.5,3.4,13.6
				c-3.4,5.1-6.8,10.2-13.6,10.2C219.4,319.7,214.3,323.1,207.5,324.8z"/>
			<path d="M324.9,392.9c3.4,8.5,5.1,17,8.5,25.5c-5.1,3.4-10.2,6.8-17,8.5c-3.4,0-6.8-1.7-10.2-3.4c-5.1-1.7-6.8-5.1-6.8-10.2
				c0-3.4-1.7-8.5,0-10.2c3.4-5.1,8.5-5.1,11.9-6.8C314.6,396.3,319.8,394.6,324.9,392.9z"/>
			<path d="M253.4,364c-6.8,3.4-13.6,6.8-20.4,10.2c0,0-1.7,0-3.4,0c-3.4-5.1-8.5-10.2-11.9-15.3c-1.7-3.4-1.7-6.8,0-8.5
				c0-3.4,3.4-5.1,5.1-8.5h1.7c6.8,3.4,13.6,5.1,18.7,11.9C248.3,357.2,250,360.6,253.4,364z"/>
		</g>
	</g>
	<g id="Layer_4" display="none">
		<g display="inline">
			<path d="M142.9,330c1.7,0,3.4,0,5.1,0c3.4,0,5.1,1.7,6.8,1.7c39.1,3.4,68,22.1,88.4,54.4s57.8,44.2,93.5,28.9
				c15.3-6.8,25.5-20.4,35.7-34c44.2-62.9,137.8-64.6,185.4-5.1c17,20.4,35.7,35.7,61.2,42.5c10.2,3.4,22.1,5.1,34,6.8
				c0,39.1,0,76.5,0,115.7c-231.3,0-462.6,0-693.9,0c0-39.1,0-78.2,0-117.4c1.7,0,1.7,0,3.4,0c37.4,0,68-15.3,90.1-45.9
				c17-20.4,37.4-35.7,64.6-42.5C125.9,331.7,134.4,331.7,142.9,330z"/>
		</g>
	</g>
</g>
</svg>
