<?xml version="1.0" encoding="utf-8"?>
<!-- Generator: Adobe Illustrator 18.1.1, SVG Export Plug-In . SVG Version: 6.00 Build 0)  -->
<svg version="1.1" xmlns="http://www.w3.org/2000/svg" xmlns:xlink="http://www.w3.org/1999/xlink" x="0px" y="0px"
	 viewBox="109.5 161.4 30.5 33.3" enable-background="new 109.5 161.4 30.5 33.3" xml:space="preserve">
<g id="Layer_2_1_">
	<g>
		<radialGradient id="SVGID_1_" cx="123.9294" cy="179.6965" r="12.6694" gradientUnits="userSpaceOnUse">
			<stop  offset="0" style="stop-color:#FFFFFF"/>
			<stop  offset="0.2821" style="stop-color:#F7F7F7"/>
			<stop  offset="0.7137" style="stop-color:#E2E2E2"/>
			<stop  offset="0.9847" style="stop-color:#D1D1D1"/>
		</radialGradient>
		<path fill="url(#SVGID_1_)" d="M123.6,165.9c0.2,0,0.5,0,0.7,0c0.4,0,0.9,0.1,1.3,0.1c2.6,0.4,4.9,1.6,6.7,3.6
			c2.4,2.6,3.3,5.7,2.9,9.2c-0.3,2.6-1.5,4.8-3.4,6.7c-2.6,2.6-5.1,5.1-7.7,7.7c-0.1,0.1-0.2,0.2-0.3,0.3c-0.5-0.5-1-1.1-1.5-1.6
			c-1.6-1.7-3.3-3.3-4.9-4.9c-0.7-0.7-1.5-1.4-2.1-2.1c-2.4-2.8-3.2-6-2.6-9.6c0.8-4.5,4.5-8.3,9-9.2C122.3,166,123,166,123.6,165.9
			z M123.9,184.2c3.9,0,6.9-3.1,6.9-6.9c0-3.8-3.1-6.9-6.9-6.9c-3.6,0-6.9,2.9-6.9,6.9C117,181.3,120.3,184.2,123.9,184.2z"/>
		<path fill="#024816" d="M123.9,184.2c-3.7,0-6.9-2.9-6.9-6.9c0-4,3.3-6.9,6.9-6.9c3.9,0,6.9,3.1,6.9,6.9
			C130.9,181.1,127.8,184.2,123.9,184.2z"/>
	</g>
</g>
<g id="Layer_1" display="none">
	<g id="Layer_1_1_">
		<g display="inline">
			<path d="M302.7,600.4c-1.7,0-5.1,0-6.8,0c-3.4,0-5.1,0-8.5-1.7c-25.5-3.4-47.6-13.6-64.6-34c-17-17-25.5-39.1-27.2-62.9
				c-1.7-20.4,3.4-40.8,13.6-59.5c13.6-25.5,28.9-52.7,42.5-78.2c17-30.6,32.3-59.5,44.2-93.5c1.7-5.1,3.4-11.9,5.1-18.7
				c0,1.7,0,1.7,0,1.7c10.2,35.7,25.5,69.7,44.2,102c15.3,27.2,32.3,56.1,45.9,83.3c11.9,23.8,17,49.3,11.9,74.8
				c-6.8,37.4-40.8,71.4-78.2,79.9C316.3,598.7,309.5,598.7,302.7,600.4z"/>
		</g>
		<g display="inline">
			<path fill="#FFFFFF" d="M219.4,546C217.7,546,217.7,546,219.4,546C217.7,546,217.7,546,219.4,546c-6.8,0-10.2-1.7-13.6-6.8
				c-3.4-3.4-5.1-8.5-5.1-11.9s0-8.5,1.7-11.9c3.4-5.1,5.1-10.2,8.5-15.3c3.4-6.8,6.8-11.9,8.5-18.7c0-1.7,0-1.7,1.7-3.4l0,0
				c1.7,6.8-1.7,13.6,1.7,20.4c3.4,5.1,6.8,11.9,8.5,17s3.4,10.2,1.7,15.3C233,537.4,226.2,544.3,219.4,546
				C217.7,546,219.4,544.3,219.4,546z"/>
		</g>
	</g>
	<g id="Layer_2" display="inline">
		<g>
			<path fill="#FFFFFF" d="M130,175.2c0,0.1,0,0.2,0,0.3c-4,0-8.1,0-12.1,0c0-0.1,0-0.2,0-0.3C121.9,175.2,126,175.2,130,175.2z"/>
			<path fill="#FFFFFF" d="M130,175.8c0,1.2,0,2.3,0,3.5c-0.3,0-0.6,0-0.9,0c0,0,0,0-0.1-0.1c-0.1-0.6-0.4-1-0.8-1.5
				c-0.7-0.8-1.9-0.9-2.7-0.1c-0.5,0.5-0.8,1.1-0.9,1.7c-0.4,0-0.9,0-1.3,0c-0.1-0.5-0.3-1-0.7-1.4c-0.4-0.6-1-0.9-1.7-0.8
				c-0.7,0-1.2,0.4-1.6,1c-0.2,0.3-0.4,0.7-0.5,1.1c0,0,0,0.1-0.1,0.1c-0.3,0-0.6,0-0.9,0c0-1.2,0-2.3,0-3.5
				C121.9,175.8,126,175.8,130,175.8z"/>
		</g>
	</g>
	<g id="Layer_3">
		<g display="inline">
			<path d="M107.2,563c0-107.2,0-216,0-323.2c8.5,0,17,1.7,25.5,1.7c6.8,0,13.6,1.7,18.7,3.4c3.4,0,5.1,0,6.8,1.7
				c3.4,1.7,6.8,5.1,11.9,6.8c3.4,1.7,5.1,5.1,5.1,8.5c0,10.2,1.7,20.4,1.7,28.9c0,11.9,0,23.8,1.7,35.7
				c1.7,15.3,6.8,27.2,15.3,39.1c5.1,5.1,6.8,10.2,5.1,17c-1.7,11.9,5.1,18.7,13.6,27.2c15.3,13.6,32.3,23.8,52.7,27.2
				c1.7,0,3.4,1.7,5.1,1.7c8.5,5.1,17,10.2,25.5,17c1.7,1.7,5.1,3.4,6.8,6.8c6.8,11.9,15.3,22.1,22.1,35.7c1.7,3.4,6.8,6.8,8.5,11.9
				c3.4,5.1,6.8,11.9,10.2,17c1.7,1.7,1.7,3.4,3.4,5.1c8.5,8.5,17,15.3,25.5,23.8c1.7,1.7,3.4,3.4,5.1,6.8
				C285.7,563,197.3,563,107.2,563z"/>
			<path d="M333.4,447.3c0-10.2,3.4-18.7,6.8-25.5c3.4-10.2,8.5-20.4,17-27.2c1.7,0,1.7-1.7,3.4-1.7c5.1-1.7,10.2-1.7,15.3-1.7
				c10.2-1.7,17,1.7,23.8,8.5c6.8,8.5,10.2,18.7,13.6,28.9c1.7,3.4,1.7,8.5,3.4,11.9c1.7,3.4,1.7,6.8,0,10.2
				c-3.4,8.5-8.5,17-11.9,23.8c-1.7,1.7-3.4,3.4-6.8,5.1c-8.5,3.4-18.7,5.1-27.2,6.8c-1.7,0-3.4,0-3.4,0
				c-6.8-6.8-13.6-13.6-20.4-18.7c-3.4-3.4-6.8-6.8-10.2-8.5C333.4,452.4,333.4,449,333.4,447.3z"/>
			<path d="M263.6,352.1c1.7-8.5,1.7-18.7,3.4-27.2c1.7-5.1,3.4-6.8,8.5-8.5c6.8-1.7,13.6,3.4,18.7,5.1c3.4,1.7,5.1,3.4,8.5,1.7
				c5.1-1.7,10.2,3.4,11.9,8.5c3.4,6.8,1.7,11.9,0,18.7s-3.4,11.9-8.5,17c-1.7,1.7-3.4,5.1-5.1,8.5c-3.4,5.1-8.5,10.2-17,8.5
				c-1.7,0-3.4,0-5.1-1.7c-3.4-3.4-8.5-8.5-11.9-11.9c-3.4-3.4-3.4-8.5-5.1-13.6C265.3,355.5,265.3,353.8,263.6,352.1
				C265.3,352.1,263.6,352.1,263.6,352.1z"/>
			<path d="M207.5,324.8c0-8.5,0-17,0-23.8c0-3.4,5.1-6.8,8.5-8.5c6.8-3.4,13.6-3.4,20.4,1.7c5.1,3.4,5.1,8.5,3.4,13.6
				c-3.4,5.1-6.8,10.2-13.6,10.2C219.4,319.7,214.3,323.1,207.5,324.8z"/>
			<path d="M324.9,392.9c3.4,8.5,5.1,17,8.5,25.5c-5.1,3.4-10.2,6.8-17,8.5c-3.4,0-6.8-1.7-10.2-3.4c-5.1-1.7-6.8-5.1-6.8-10.2
				c0-3.4-1.7-8.5,0-10.2c3.4-5.1,8.5-5.1,11.9-6.8C314.6,396.3,319.8,394.6,324.9,392.9z"/>
			<path d="M253.4,364c-6.8,3.4-13.6,6.8-20.4,10.2c0,0-1.7,0-3.4,0c-3.4-5.1-8.5-10.2-11.9-15.3c-1.7-3.4-1.7-6.8,0-8.5
				c0-3.4,3.4-5.1,5.1-8.5h1.7c6.8,3.4,13.6,5.1,18.7,11.9C248.3,357.2,250,360.6,253.4,364z"/>
		</g>
	</g>
	<g id="Layer_4">
		<g display="inline">
			<path d="M142.9,330c1.7,0,3.4,0,5.1,0c3.4,0,5.1,1.7,6.8,1.7c39.1,3.4,68,22.1,88.4,54.4s57.8,44.2,93.5,28.9
				c15.3-6.8,25.5-20.4,35.7-34c44.2-62.9,137.8-64.6,185.4-5.1c17,20.4,35.7,35.7,61.2,42.5c10.2,3.4,22.1,5.1,34,6.8
				c0,39.1,0,76.5,0,115.7c-231.3,0-462.6,0-693.9,0c0-39.1,0-78.2,0-117.4c1.7,0,1.7,0,3.4,0c37.4,0,68-15.3,90.1-45.9
				c17-20.4,37.4-35.7,64.6-42.5C125.9,331.7,134.4,331.7,142.9,330z"/>
		</g>
	</g>
</g>
<g id="Layer_3_1_" display="none">
	<g display="inline">
		<path fill="#FFFFFF" d="M123.9,172.1c0.3,0.5,0.7,1.1,1,1.6c0.7,1.1,1.4,2.3,1.9,3.5c0.2,0.5,0.4,1,0.5,1.5c0.1,0.6,0,1.2-0.2,1.7
			c-0.6,1.4-2,2.2-3.5,2.1c-1.5-0.1-2.8-1.3-3.1-2.8c-0.1-0.7,0-1.3,0.3-1.9c0.4-1.2,1-2.3,1.7-3.3c0.4-0.7,0.9-1.5,1.4-2.2
			C123.9,172.2,123.9,172.1,123.9,172.1z M124.8,176.9c-0.3,0.4-0.9,1.6-1,2c0,0.1,0,0.3,0,0.4c0.1,0.6,0.7,0.9,1.3,0.8
			c0.6-0.1,0.9-0.7,0.8-1.3C125.6,178.1,125.2,177.5,124.8,176.9z"/>
	</g>
</g>
<g id="Layer_4_1_" display="none">
	<path display="inline" fill="#FFFFFF" d="M120.2,182.1c0-3.2,0-6.4,0-9.6c0.3,0,0.5,0.1,0.8,0.1c0.2,0,0.4,0.1,0.6,0.1
		c0.1,0,0.1,0.1,0.2,0.1c0.1,0.1,0.2,0.2,0.4,0.2c0.1,0.1,0.2,0.2,0.2,0.3c0,0.3,0.1,0.6,0.1,0.9c0,0.4,0,0.7,0.1,1.1
		c0.1,0.5,0.2,0.8,0.5,1.2c0.2,0.2,0.2,0.3,0.2,0.5c-0.1,0.4,0.2,0.6,0.4,0.8c0.5,0.4,1,0.7,1.6,0.8c0.1,0,0.1,0.1,0.2,0.1
		c0.3,0.2,0.5,0.3,0.8,0.5c0.1,0.1,0.2,0.1,0.2,0.2c0.2,0.4,0.5,0.7,0.7,1.1c0.1,0.1,0.2,0.2,0.3,0.4c0.1,0.2,0.2,0.4,0.3,0.5
		c0.1,0.1,0.1,0.1,0.1,0.2c0.3,0.3,0.5,0.5,0.8,0.7c0.1,0.1,0.1,0.1,0.2,0.2C125.5,182.1,122.9,182.1,120.2,182.1z"/>
	<path display="inline" fill="#FFFFFF" d="M129.1,179.5c-0.1,0.1-0.1,0.1-0.2,0.2c-0.3,0.1-0.6,0.2-0.8,0.2c-0.1,0-0.1,0-0.1,0
		c-0.2-0.2-0.4-0.4-0.6-0.6c-0.1-0.1-0.2-0.2-0.3-0.3c-0.1-0.2-0.1-0.3-0.1-0.4c0-0.3,0.1-0.6,0.2-0.8c0.1-0.3,0.3-0.6,0.5-0.8
		c0.1,0,0.1-0.1,0.1-0.1c0.2-0.1,0.3-0.1,0.5-0.1c0.3-0.1,0.5,0.1,0.7,0.3c0.2,0.3,0.3,0.6,0.4,0.9"/>
	<path display="inline" fill="#FFFFFF" d="M124.9,175.8c0.1-0.3,0.1-0.6,0.1-0.8c0.1-0.2,0.1-0.2,0.3-0.3c0.2-0.1,0.4,0.1,0.6,0.2
		c0.1,0.1,0.2,0.1,0.3,0.1c0.2-0.1,0.3,0.1,0.4,0.3c0.1,0.2,0.1,0.4,0,0.6c-0.1,0.2-0.1,0.4-0.3,0.5c-0.1,0.1-0.1,0.2-0.2,0.3
		c-0.1,0.2-0.3,0.3-0.5,0.3c-0.1,0-0.1,0-0.2-0.1c-0.1-0.1-0.3-0.3-0.4-0.4c-0.1-0.1-0.1-0.3-0.2-0.4
		C124.9,175.9,124.9,175.9,124.9,175.8L124.9,175.8z"/>
	<path display="inline" fill="#FFFFFF" d="M123.2,175c0-0.3,0-0.5,0-0.7c0-0.1,0.2-0.2,0.3-0.3c0.2-0.1,0.4-0.1,0.6,0.1
		c0.2,0.1,0.2,0.3,0.1,0.4c-0.1,0.2-0.2,0.3-0.4,0.3C123.5,174.8,123.4,174.9,123.2,175z"/>
	<path display="inline" fill="#FFFFFF" d="M126.7,177c0.1,0.3,0.2,0.5,0.3,0.8c-0.2,0.1-0.3,0.2-0.5,0.3c-0.1,0-0.2-0.1-0.3-0.1
		c-0.2-0.1-0.2-0.2-0.2-0.3c0-0.1-0.1-0.3,0-0.3c0.1-0.2,0.2-0.2,0.3-0.2C126.4,177.1,126.5,177.1,126.7,177z"/>
	<path display="inline" fill="#FFFFFF" d="M124.5,176.2c-0.2,0.1-0.4,0.2-0.6,0.3c0,0-0.1,0-0.1,0c-0.2-0.2-0.3-0.3-0.4-0.5
		c-0.1-0.1-0.1-0.2,0-0.3c0.1-0.1,0.2-0.2,0.2-0.3h0.1c0.2,0.1,0.4,0.2,0.6,0.4C124.3,176,124.4,176.1,124.5,176.2z"/>
</g>
<g id="Layer_5" display="none">
	<g id="Layer_4_2_" display="inline">
		<g>
			<path fill="#FFFFFF" d="M121,175.1C121,175.1,121,175.1,121,175.1c0.1,0,0.2,0,0.2,0c0.7,0,1.2,0.4,1.6,1
				c0.3,0.6,1.1,0.8,1.6,0.5c0.3-0.1,0.5-0.4,0.6-0.6c0.8-1.1,2.5-1.2,3.3-0.1c0.3,0.3,0.6,0.6,1.1,0.8c0.2,0,0.4,0.1,0.6,0.1
				c0,0.7,0,1.4,0,2.1c-4.1,0-8.3,0-12.4,0c0-0.7,0-1.4,0-2.1c0,0,0,0,0,0c0.7,0,1.2-0.3,1.6-0.8c0.3-0.4,0.7-0.6,1.2-0.7
				C120.6,175.1,120.8,175.1,121,175.1z"/>
		</g>
	</g>
</g>
<g id="Layer_6">
	<g>
		<path fill="#FFFFFF" d="M119.1,176c0.7,0,1.4,0,2.1,0c-0.2-0.9-0.4-1.7-0.6-2.6c0.9,0.6,1.8,1.2,2.7,1.7c-0.1-0.3-0.1-0.7-0.2-1
			c0.6,0.4,1.3,0.8,1.9,1.2c-0.1-0.3-0.1-0.5-0.2-0.8c0.9,0.6,1.8,1.1,2.7,1.7c-0.9,0.6-1.8,1.1-2.7,1.7c0.1-0.3,0.1-0.5,0.2-0.8
			c-0.6,0.4-1.3,0.8-1.9,1.2c0.1-0.3,0.1-0.6,0.2-1c-0.9,0.6-1.8,1.2-2.7,1.7c0.2-0.8,0.4-1.7,0.6-2.5c-0.7,0-1.4,0-2.1,0
			C119.1,176.5,119.1,176.2,119.1,176z"/>
	</g>
	<path fill="#FFFFFF" d="M124.8,184.2c2.4-0.6,0.7-8.5,0.7-8.5c0.4,1.9-4.8,7.8-4.8,7.8S123.1,184.6,124.8,184.2z"/>
</g>
</svg>
