<?xml version="1.0" encoding="utf-8"?>
<!-- Generator: Adobe Illustrator 18.1.1, SVG Export Plug-In . SVG Version: 6.00 Build 0)  -->
<svg version="1.1" xmlns="http://www.w3.org/2000/svg" xmlns:xlink="http://www.w3.org/1999/xlink" x="0px" y="0px"
	 viewBox="0 155.9 595.3 567" enable-background="new 0 155.9 595.3 567" xml:space="preserve">
<g id="Layer_1">
	<g id="Layer_2_1_">
		<g>
			
				<radialGradient id="SVGID_1_" cx="118.6008" cy="671.1564" r="12.6713" gradientTransform="matrix(19.5174 0 0 -19.5174 -2027.6528 13538.7607)" gradientUnits="userSpaceOnUse">
				<stop  offset="0" style="stop-color:#FFFFFF"/>
				<stop  offset="0.2821" style="stop-color:#F7F7F7"/>
				<stop  offset="0.7137" style="stop-color:#E2E2E2"/>
				<stop  offset="0.9847" style="stop-color:#D1D1D1"/>
			</radialGradient>
			<path fill="url(#SVGID_1_)" d="M280.7,170.2c3.9,0,9.8,0,13.7,0c7.8,0,17.6,2,25.4,2c50.7,7.8,95.6,31.2,130.8,70.3
				c46.8,50.7,64.4,111.2,56.6,179.6c-5.9,50.7-29.3,93.7-66.4,130.8C390,603.5,341.2,652.3,290.5,703c-2,2-3.9,3.9-5.9,5.9
				c-9.8-9.8-19.5-21.5-29.3-31.2c-31.2-33.2-64.4-64.4-95.6-95.6c-13.7-13.7-29.3-27.3-41-41C71.9,486.4,56.2,423.9,68,353.7
				c15.6-87.8,87.8-162,175.7-179.6C255.3,172.2,269,172.2,280.7,170.2z M286.6,527.4c76.1,0,134.7-60.5,134.7-134.7
				c0-74.2-60.5-134.7-134.7-134.7c-70.3,0-134.7,56.6-134.7,134.7S216.3,527.4,286.6,527.4z"/>
			<path fill="#F54C4C" d="M286.6,527.4c-72.2,0-134.7-56.6-134.7-134.7S216.3,258,286.6,258c76.1,0,134.7,60.5,134.7,134.7
				C423.2,466.9,362.7,527.4,286.6,527.4z"/>
		</g>
	</g>
	<g id="Layer_1_2_" display="none">
		<g id="Layer_1_1_" display="inline">
			<g>
				<path d="M3880.3,8825.5c-33.2,0-99.5,0-132.7,0c-66.4,0-99.5,0-165.9-33.2c-497.7-66.4-929-265.4-1260.8-663.6
					c-331.8-331.8-497.7-763.1-530.9-1227.6c-33.2-398.2,66.4-796.3,265.4-1161.3c265.4-497.7,564.1-1028.6,829.5-1526.3
					c331.8-597.2,630.4-1161.3,862.7-1824.9c33.2-99.5,66.4-232.3,99.5-365c0,33.2,0,33.2,0,33.2
					c199.1,696.8,497.7,1360.4,862.7,1990.8c298.6,530.9,630.4,1094.9,895.8,1625.8c232.3,464.5,331.8,962.2,232.3,1459.9
					c-132.7,730-796.3,1393.5-1526.3,1559.4C4145.7,8792.3,4013,8792.3,3880.3,8825.5z"/>
			</g>
			<g>
				<path fill="#FFFFFF" d="M2254.5,7763.8C2221.3,7763.8,2221.3,7763.8,2254.5,7763.8C2221.3,7763.8,2221.3,7763.8,2254.5,7763.8
					c-132.7,0-199.1-33.2-265.4-132.7c-66.4-66.4-99.5-165.9-99.5-232.3s0-165.9,33.2-232.3c66.4-99.5,99.5-199.1,165.9-298.6
					c66.4-132.7,132.7-232.3,165.9-365c0-33.2,0-33.2,33.2-66.4l0,0c33.2,132.7-33.2,265.4,33.2,398.2
					c66.4,99.5,132.7,232.3,165.9,331.8c33.2,99.5,66.4,199.1,33.2,298.6C2519.9,7595.9,2387.2,7730.6,2254.5,7763.8
					C2221.3,7763.8,2254.5,7730.6,2254.5,7763.8z"/>
			</g>
		</g>
		<g id="Layer_2" display="inline">
			<g>
				<path fill="#FFFFFF" d="M509.6,526.7c0,2,0,3.9,0,5.9c-78.1,0-158.1,0-236.2,0c0-2,0-3.9,0-5.9
					C351.5,526.7,431.5,526.7,509.6,526.7z"/>
				<path fill="#FFFFFF" d="M509.6,538.4c0,23.4,0,44.9,0,68.3c-5.9,0-11.7,0-17.6,0c0,0,0,0-2-2c-2-11.7-7.8-19.5-15.6-29.3
					c-13.7-15.6-37.1-17.6-52.7-2c-9.8,9.8-15.6,21.5-17.6,33.2c-7.8,0-17.6,0-25.4,0c-2-9.8-5.9-19.5-13.7-27.3
					c-7.8-11.7-19.5-17.6-33.2-15.6c-13.7,0-23.4,7.8-31.2,19.5c-3.9,5.9-7.8,13.7-9.8,21.5c0,0,0,2-2,2c-5.9,0-11.7,0-17.6,0
					c0-23.4,0-44.9,0-68.3C351.5,538.4,431.5,538.4,509.6,538.4z"/>
			</g>
		</g>
		<g id="Layer_3" display="inline">
			<g>
				<path d="M64.6,8095.6c0-2092.3,0-4215.8,0-6308c165.9,0,331.8,33.2,497.7,33.2c132.7,0,265.4,33.2,365,66.4
					c66.4,0,99.5,0,132.7,33.2c66.4,33.2,132.7,99.5,232.3,132.7c66.4,33.2,99.5,99.5,99.5,165.9c0,199.1,33.2,398.2,33.2,564.1
					c0,232.3,0,464.5,33.2,696.8c33.2,298.6,132.7,530.9,298.6,763.1c99.5,99.5,132.7,199.1,99.5,331.8
					c-33.2,232.3,99.5,365,265.4,530.9c298.6,265.4,630.4,464.5,1028.6,530.9c33.2,0,66.4,33.2,99.5,33.2
					c165.9,99.5,331.8,199.1,497.7,331.8c33.2,33.2,99.5,66.4,132.7,132.7c132.7,232.3,298.6,431.3,431.3,696.8
					c33.2,66.4,132.7,132.7,165.9,232.3c66.4,99.5,132.7,232.3,199.1,331.8c33.2,33.2,33.2,66.4,66.4,99.5
					c165.9,165.9,331.8,298.6,497.7,464.5c33.2,33.2,66.4,66.4,99.5,132.7C3548.5,8095.6,1823.1,8095.6,64.6,8095.6z"/>
				<path d="M4479.4,5837.4c0-199.1,66.4-365,132.7-497.7c66.4-199.1,165.9-398.2,331.8-530.9c33.2,0,33.2-33.2,66.4-33.2
					c99.5-33.2,199.1-33.2,298.6-33.2c199.1-33.2,331.8,33.2,464.5,165.9c132.7,165.9,199.1,365,265.4,564.1
					c33.2,66.4,33.2,165.9,66.4,232.3c33.2,66.4,33.2,132.7,0,199.1c-66.4,165.9-165.9,331.8-232.3,464.5
					c-33.2,33.2-66.4,66.4-132.7,99.5c-165.9,66.4-365,99.5-530.9,132.7c-33.2,0-66.4,0-66.4,0c-132.7-132.7-265.4-265.4-398.2-365
					c-66.4-66.4-132.7-132.7-199.1-165.9C4479.4,5936.9,4479.4,5870.6,4479.4,5837.4z"/>
				<path d="M3117.1,3979.3c33.2-165.9,33.2-365,66.4-530.9c33.2-99.5,66.4-132.7,165.9-165.9c132.7-33.2,265.4,66.4,365,99.5
					c66.4,33.2,99.5,66.4,165.9,33.2c99.5-33.2,199.1,66.4,232.3,165.9c66.4,132.7,33.2,232.3,0,365
					c-33.2,132.7-66.4,232.3-165.9,331.8c-33.2,33.2-66.4,99.5-99.5,165.9c-66.4,99.5-165.9,199.1-331.8,165.9
					c-33.2,0-66.4,0-99.5-33.2c-66.4-66.4-165.9-165.9-232.3-232.3c-66.4-66.4-66.4-165.9-99.5-265.4
					C3150.3,4045.7,3150.3,4012.5,3117.1,3979.3C3150.3,3979.3,3117.1,3979.3,3117.1,3979.3z"/>
				<path d="M2022.2,3446.5c0-165.9,0-331.8,0-464.5c0-66.4,99.5-132.7,165.9-165.9c132.7-66.4,265.4-66.4,398.2,33.2
					c99.5,66.4,99.5,165.9,66.4,265.4c-66.4,99.5-132.7,199.1-265.4,199.1C2254.5,3347,2154.9,3413.3,2022.2,3446.5z"/>
				<path d="M4313.5,4775.7c66.4,165.9,99.5,331.8,165.9,497.7c-99.5,66.4-199.1,132.7-331.8,165.9c-66.4,0-132.7-33.2-199.1-66.4
					c-99.5-33.2-132.7-99.5-132.7-199.1c0-66.4-33.2-165.9,0-199.1c66.4-99.5,165.9-99.5,232.3-132.7
					C4112.5,4842,4214,4808.8,4313.5,4775.7z"/>
				<path d="M2918.1,4211.6c-132.7,66.4-265.4,132.7-398.2,199.1c0,0-33.2,0-66.4,0c-66.4-99.5-165.9-199.1-232.3-298.6
					c-33.2-66.4-33.2-132.7,0-165.9c0-66.4,66.4-99.5,99.5-165.9h33.2c132.7,66.4,265.4,99.5,365,232.3
					C2818.5,4078.9,2851.7,4145.2,2918.1,4211.6z"/>
			</g>
		</g>
		<g id="Layer_4" display="inline">
			<g>
				<path d="M761.4,3548c33.2,0,66.4,0,99.5,0c66.4,0,99.5,33.2,132.7,33.2c763.1,66.4,1327.2,431.3,1725.3,1061.7
					c398.2,630.4,1128.1,862.7,1824.9,564.1c298.6-132.7,497.7-398.2,696.8-663.6c862.7-1227.6,2689.5-1260.8,3618.5-99.5
					c331.8,398.2,696.8,696.8,1194.5,829.5c199.1,66.4,431.3,99.5,663.6,132.7c0,763.1,0,1493.1,0,2258.2
					c-4514.4,0-9028.7,0-13543.1,0c0-763.1,0-1526.3,0-2291.3c33.2,0,33.2,0,66.4,0c729.9,0,1327.2-298.6,1758.5-895.8
					c331.8-398.2,729.9-696.8,1260.8-829.5C429.6,3581.2,595.5,3581.2,761.4,3548z"/>
			</g>
		</g>
	</g>
	<g id="Layer_3_1_" display="none">
		<g display="inline">
			<path fill="#FFFFFF" d="M390.6,466.2c5.9,9.8,13.7,21.5,19.5,31.2c13.7,21.5,27.3,44.9,37.1,68.3c3.9,9.8,7.8,19.5,9.8,29.3
				c2,11.7,0,23.4-3.9,33.2c-11.7,27.3-39,42.9-68.3,41c-29.3-2-54.6-25.4-60.5-54.6c-2-13.7,0-25.4,5.9-37.1
				c7.8-23.4,19.5-44.9,33.2-64.4c7.8-13.7,17.6-29.3,27.3-42.9C390.6,468.2,390.6,466.2,390.6,466.2z M408.1,559.9
				c-5.9,7.8-17.6,31.2-19.5,39c0,2,0,5.9,0,7.8c2,11.7,13.7,17.6,25.4,15.6c11.7-2,17.6-13.7,15.6-25.4
				C423.7,583.3,415.9,571.6,408.1,559.9z"/>
		</g>
	</g>
	<g id="Layer_4_1_" display="none">
		<path display="inline" fill="#FFFFFF" d="M318.3,661.4c0-62.5,0-124.9,0-187.4c5.9,0,9.8,2,15.6,2c3.9,0,7.8,2,11.7,2
			c2,0,2,2,3.9,2c2,2,3.9,3.9,7.8,3.9c2,2,3.9,3.9,3.9,5.9c0,5.9,2,11.7,2,17.6c0,7.8,0,13.7,2,21.5c2,9.8,3.9,15.6,9.8,23.4
			c3.9,3.9,3.9,5.9,3.9,9.8c-2,7.8,3.9,11.7,7.8,15.6c9.8,7.8,19.5,13.7,31.2,15.6c2,0,2,2,3.9,2c5.9,3.9,9.8,5.9,15.6,9.8
			c2,2,3.9,2,3.9,3.9c3.9,7.8,9.8,13.7,13.7,21.5c2,2,3.9,3.9,5.9,7.8c2,3.9,3.9,7.8,5.9,9.8c2,2,2,2,2,3.9
			c5.9,5.9,9.8,9.8,15.6,13.7c2,2,2,2,3.9,3.9C421.8,661.4,371,661.4,318.3,661.4z"/>
		<path display="inline" fill="#FFFFFF" d="M492,610.6c-2,2-2,2-3.9,3.9c-5.9,2-11.7,3.9-15.6,3.9c-2,0-2,0-2,0
			c-3.9-3.9-7.8-7.8-11.7-11.7c-2-2-3.9-3.9-5.9-5.9c-2-3.9-2-5.9-2-7.8c0-5.9,2-11.7,3.9-15.6c2-5.9,5.9-11.7,9.8-15.6c2,0,2-2,2-2
			c3.9-2,5.9-2,9.8-2c5.9-2,9.8,2,13.7,5.9c3.9,5.9,5.9,11.7,7.8,17.6"/>
		<path display="inline" fill="#FFFFFF" d="M410.1,538.4c2-5.9,2-11.7,2-15.6c2-3.9,2-3.9,5.9-5.9c3.9-2,7.8,2,11.7,3.9
			c2,2,3.9,2,5.9,2c3.9-2,5.9,2,7.8,5.9c2,3.9,2,7.8,0,11.7c-2,3.9-2,7.8-5.9,9.8c-2,2-2,3.9-3.9,5.9c-2,3.9-5.9,5.9-9.8,5.9
			c-2,0-2,0-3.9-2c-2-2-5.9-5.9-7.8-7.8c-2-2-2-5.9-3.9-7.8C410.1,540.4,410.1,540.4,410.1,538.4L410.1,538.4z"/>
		<path display="inline" fill="#FFFFFF" d="M376.9,522.8c0-5.9,0-9.8,0-13.7c0-2,3.9-3.9,5.9-5.9c3.9-2,7.8-2,11.7,2
			c3.9,2,3.9,5.9,2,7.8c-2,3.9-3.9,5.9-7.8,5.9C382.7,518.9,380.8,520.9,376.9,522.8z"/>
		<path display="inline" fill="#FFFFFF" d="M445.2,561.9c2,5.9,3.9,9.8,5.9,15.6c-3.9,2-5.9,3.9-9.8,5.9c-2,0-3.9-2-5.9-2
			c-3.9-2-3.9-3.9-3.9-5.9s-2-5.9,0-5.9c2-3.9,3.9-3.9,5.9-3.9C439.3,563.8,441.3,563.8,445.2,561.9z"/>
		<path display="inline" fill="#FFFFFF" d="M402.3,546.2c-3.9,2-7.8,3.9-11.7,5.9h-2c-3.9-3.9-5.9-5.9-7.8-9.8c-2-2-2-3.9,0-5.9
			c2-2,3.9-3.9,3.9-5.9h2c3.9,2,7.8,3.9,11.7,7.8C398.4,542.3,400.3,544.3,402.3,546.2z"/>
	</g>
	<g id="Layer_5" display="none">
		<g id="Layer_4_2_" display="inline">
			<g>
				<path fill="#FFFFFF" d="M333.9,524.8L333.9,524.8c2,0,3.9,0,3.9,0c13.7,0,23.4,7.8,31.2,19.5c5.9,11.7,21.5,15.6,31.2,9.8
					c5.9-2,9.8-7.8,11.7-11.7c15.6-21.5,48.8-23.4,64.4-2c5.9,5.9,11.7,11.7,21.5,15.6c3.9,0,7.8,2,11.7,2c0,13.7,0,27.3,0,41
					c-80,0-162,0-242,0c0-13.7,0-27.3,0-41l0,0c13.7,0,23.4-5.9,31.2-15.6c5.9-7.8,13.7-11.7,23.4-13.7
					C326.1,524.8,330,524.8,333.9,524.8z"/>
			</g>
		</g>
	</g>
</g>
<g id="Layer_2_2_">
	<g>
		<path fill="#FFFFFF" d="M188.7,450.6c8.1-14.5,16.2-29,24.4-43.4c22.5-39.8,45-79.7,67.4-119.5c0.2-0.4,0.4-0.8,0.6-1.1
			c3-5.1,7.9-5.1,10.7,0c9.6,16.9,19.1,33.9,28.7,50.8c20.7,36.8,41.5,73.5,62.2,110.3c0.6,1,1.1,2,1.6,3c0,0.7,0,1.4,0,2.2
			c-1.3,3.7-4,4.9-7.9,4.8c-60-0.1-120-0.1-180.1,0c-3.8,0-6.4-1.2-7.7-4.8C188.7,452,188.7,451.3,188.7,450.6z M208.1,442.2
			c52.4,0,104.4,0,156.7,0c-26.1-47-52.1-93.8-78.3-141.1C260.3,348.5,234.3,395.2,208.1,442.2z"/>
		<path fill="#FFFFFF" d="M188.7,452.7c1.3,3.6,3.9,4.9,7.7,4.8c60-0.1,120-0.1,180.1,0c3.9,0,6.6-1.1,7.9-4.8c0,1.7,0,3.5,0,5.2
			c-65.2,0-130.4,0-195.7,0C188.7,456.2,188.7,454.5,188.7,452.7z"/>
		<path fill="#FFFFFF" d="M275.6,348.2c-0.4-3-0.2-6.4,1.4-9.7c1.6-3.1,4-4.9,7.6-4.8c0.8,0,1.6,0,2.4,0c7,0,10.8,3.5,10.8,10.6
			c0,6.2-0.5,12.4-0.9,18.6c-0.5,8.7-1.1,17.5-1.7,26.2c-0.2,2.7-0.5,5.5-1.3,8.1c-1.2,3.8-3.9,5.8-7.2,5.8c-3.3,0-6.2-2-7.2-5.8
			c-0.9-3.3-1.2-6.8-1.5-10.2C277.1,374.2,276.4,361.5,275.6,348.2z"/>
		<path fill="#FFFFFF" d="M296.5,425.4c-0.1,5.2-4.6,9.6-9.6,9.5c-5-0.1-9.5-4.7-9.4-9.8c0.1-5.4,4.4-9.6,9.8-9.5
			C292.5,415.7,296.7,420.1,296.5,425.4z"/>
	</g>
</g>
</svg>
